<svg width="126" height="18" viewBox="0 0 126 18" fill="none" xmlns="http://www.w3.org/2000/svg">
<rect width="126" height="18" fill="#1E1E1E"/>
<g id="Carreers">
<rect width="1440" height="5300" transform="translate(-112 -5144)" fill="#020202"/>
<g id="Footer">
<g id="Footer Down">
<g id="logo">
<g id="reload.case">
<path d="M0 17.7297H3.58771V10.3577C3.58771 8.44096 4.61979 7.3843 6.38908 7.3843C6.90512 7.3843 7.39659 7.45802 7.69147 7.58089V4.42321C7.42116 4.34949 7.05256 4.28805 6.65938 4.28805C5.12355 4.28805 4.05461 5.23413 3.66143 6.85597H3.58771V4.55836H0V17.7297Z" fill="#B6FBFF"/>
<path d="M14.2162 18C17.9759 18 19.7943 15.7761 20.1998 13.8348L20.2367 13.6997H16.9438L16.9193 13.7734C16.6612 14.5106 15.7643 15.3215 14.2899 15.3215C12.4592 15.3215 11.3165 14.0928 11.2797 11.9918H20.3472V10.886C20.3472 6.90512 17.9268 4.28805 14.0687 4.28805C10.2107 4.28805 7.7411 6.96655 7.7411 11.1563V11.1686C7.7411 15.3829 10.1862 18 14.2162 18ZM14.1302 6.96655C15.6169 6.96655 16.6858 7.91263 16.907 9.73106H11.3165C11.55 7.94949 12.6558 6.96655 14.1302 6.96655Z" fill="#B6FBFF"/>
<path d="M21.7853 17.7297H25.373V0H21.7853V17.7297Z" fill="#B6FBFF"/>
<path d="M33.3353 18C37.3161 18 39.8595 15.4444 39.8595 11.144V11.1195C39.8595 6.85597 37.267 4.28805 33.323 4.28805C29.3912 4.28805 26.811 6.88055 26.811 11.1195V11.144C26.811 15.4321 29.3298 18 33.3353 18ZM33.3475 15.1863C31.5783 15.1863 30.4602 13.7242 30.4602 11.144V11.1195C30.4602 8.57611 31.5905 7.10171 33.323 7.10171C35.0677 7.10171 36.2103 8.57611 36.2103 11.1195V11.144C36.2103 13.7119 35.0923 15.1863 33.3475 15.1863Z" fill="#B6FBFF"/>
<path d="M45.131 17.9386C46.8634 17.9386 48.2641 17.1154 49.0136 15.7638H49.0873V17.7297H52.675V8.69898C52.675 6.04505 50.4757 4.28805 47.0723 4.28805C43.5951 4.28805 41.5064 6.03276 41.3098 8.46553L41.2975 8.61297H44.5781L44.6026 8.50239C44.7747 7.65461 45.5856 7.02799 46.9248 7.02799C48.3255 7.02799 49.0873 7.7529 49.0873 8.92014V9.73106L45.8313 9.92764C42.563 10.1365 40.7078 11.5372 40.7078 13.9331V13.9577C40.7078 16.2799 42.4893 17.9386 45.131 17.9386ZM44.2586 13.7734V13.7488C44.2586 12.815 44.9835 12.2253 46.3719 12.1392L49.0873 11.9672V12.9133C49.0873 14.2894 47.9078 15.3215 46.2982 15.3215C45.0572 15.3215 44.2586 14.744 44.2586 13.7734Z" fill="#B6FBFF"/>
<path d="M59.3717 18C61.2762 18 62.726 17.0416 63.4263 15.4812H63.5001V17.7297H67.0878V0H63.5001V6.84369H63.4263C62.7137 5.24642 61.2393 4.28805 59.3717 4.28805C56.0543 4.28805 54.0147 6.84369 54.0147 11.1317V11.144C54.0147 15.4198 56.0543 18 59.3717 18ZM60.5758 15.0266C58.782 15.0266 57.6639 13.5399 57.6639 11.144V11.1317C57.6639 8.72355 58.7943 7.26143 60.5758 7.26143C62.3083 7.26143 63.5123 8.76041 63.5123 11.1317V11.144C63.5123 13.5276 62.3205 15.0266 60.5758 15.0266Z" fill="#B6FBFF"/>
</g>
<g id="reload.case_2">
<path d="M80.002 18C83.516 18 85.7891 15.813 85.9611 12.9379V12.8642H82.6191L82.6068 12.9748C82.3611 14.3017 81.4642 15.1864 80.0266 15.1864C78.2573 15.1864 77.1515 13.7243 77.1515 11.1441V11.1318C77.1515 8.613 78.2573 7.10174 80.0143 7.10174C81.501 7.10174 82.3734 8.0601 82.5945 9.31334L82.6191 9.42392H85.9488V9.33791C85.8136 6.4874 83.5406 4.28809 79.9652 4.28809C76.0212 4.28809 73.5024 6.90515 73.5024 11.1195V11.1318C73.5024 15.383 75.9843 18 80.002 18Z" fill="white"/>
<path d="M91.1097 17.9386C92.8421 17.9386 94.2428 17.1154 94.9923 15.7639H95.066V17.7297H98.6537V8.69901C98.6537 6.04508 96.4544 4.28809 93.051 4.28809C89.5739 4.28809 87.4851 6.0328 87.2885 8.46556L87.2762 8.613H90.5568L90.5814 8.50242C90.7534 7.65464 91.5643 7.02802 92.9035 7.02802C94.3042 7.02802 95.066 7.75293 95.066 8.92017V9.73109L91.81 9.92768C88.5418 10.1365 86.6865 11.5372 86.6865 13.9331V13.9577C86.6865 16.2799 88.4681 17.9386 91.1097 17.9386ZM90.2373 13.7734V13.7488C90.2373 12.815 90.9623 12.2253 92.3506 12.1393L95.066 11.9673V12.9133C95.066 14.2894 93.8865 15.3215 92.2769 15.3215C91.036 15.3215 90.2373 14.7441 90.2373 13.7734Z" fill="white"/>
<path d="M105.891 18C109.282 18 111.654 16.3045 111.654 13.7243V13.712C111.654 11.7707 110.523 10.6895 107.771 10.112L105.535 9.63279C104.208 9.3502 103.753 8.90788 103.753 8.23211V8.21983C103.753 7.37204 104.527 6.81914 105.768 6.81914C107.095 6.81914 107.869 7.53177 107.992 8.47785L108.004 8.57614H111.309V8.45327C111.223 6.14338 109.27 4.28809 105.768 4.28809C102.414 4.28809 100.251 5.90993 100.251 8.41641V8.4287C100.251 10.3946 101.542 11.6724 104.097 12.213L106.333 12.6799C107.623 12.9625 108.066 13.3679 108.066 14.0683V14.0806C108.066 14.9284 107.243 15.4567 105.891 15.4567C104.454 15.4567 103.679 14.8546 103.446 13.8226L103.421 13.712H99.9197L99.932 13.8226C100.215 16.3168 102.242 18 105.891 18Z" fill="white"/>
<path d="M118.915 18C122.675 18 124.494 15.7761 124.899 13.8348L124.936 13.6997H121.643L121.619 13.7734C121.361 14.5106 120.464 15.3215 118.989 15.3215C117.158 15.3215 116.016 14.0929 115.979 11.9918H125.047V10.886C125.047 6.90515 122.626 4.28809 118.768 4.28809C114.91 4.28809 112.44 6.96658 112.44 11.1563V11.1686C112.44 15.383 114.885 18 118.915 18ZM118.829 6.96658C120.316 6.96658 121.385 7.91266 121.606 9.73109H116.016C116.249 7.94952 117.355 6.96658 118.829 6.96658Z" fill="white"/>
</g>
<path id="reload.case_3" d="M70.848 17.9385C71.9538 17.9385 72.8384 17.0539 72.8384 15.9481C72.8384 14.83 71.9538 13.9576 70.848 13.9576C69.7299 13.9576 68.8575 14.83 68.8575 15.9481C68.8575 17.0539 69.7299 17.9385 70.848 17.9385Z" fill="#FFFFBB"/>
</g>
</g>
<path d="M-112 -429H1328V-431H-112V-429ZM1328 75H-112V77H1328V75Z" fill="#303030" mask="url(#path-1-inside-1_0_1)"/>
</g>
</g>
</svg>
